<svg width="46" height="46" viewBox="0 0 46 46" fill="none" xmlns="http://www.w3.org/2000/svg">
<path d="M15.5889 27.0804C15.5889 25.8031 16.6243 24.7677 17.9016 24.7677H28.6338C29.9111 24.7677 30.9466 25.8031 30.9466 27.0804C30.9466 28.3577 29.9111 29.3932 28.6338 29.3932H17.9016C16.6243 29.3932 15.5889 28.3577 15.5889 27.0804Z" fill="#777777"/>
<path d="M8.87445 27.1755C8.87445 25.8982 9.90991 24.8627 11.1872 24.8627H11.2514C12.5287 24.8627 13.5642 25.8982 13.5642 27.1755C13.5642 28.4528 12.5287 29.4883 11.2514 29.4883H11.1872C9.90991 29.4883 8.87445 28.4528 8.87445 27.1755Z" fill="#777777"/>
<path d="M15.6861 35.4313C15.6861 34.154 16.7216 33.1185 17.9989 33.1185H28.6339C29.9112 33.1185 30.9467 34.154 30.9467 35.4313C30.9467 36.7086 29.9112 37.744 28.6339 37.744H17.9989C16.7216 37.744 15.6861 36.7086 15.6861 35.4313Z" fill="#777777"/>
<path d="M15.6861 18.8247C15.6861 17.5474 16.7216 16.5119 17.9989 16.5119H28.6339C29.9112 16.5119 30.9467 17.5474 30.9467 18.8247C30.9467 20.102 29.9112 21.1374 28.6339 21.1374H17.9989C16.7216 21.1374 15.6861 20.102 15.6861 18.8247Z" fill="#777777"/>
<path d="M8.87445 43.687C8.87445 42.4097 9.90991 41.3743 11.1872 41.3743H11.2514C12.5287 41.3743 13.5642 42.4097 13.5642 43.687C13.5642 44.9643 12.5287 45.9998 11.2514 45.9998H11.1872C9.90991 45.9998 8.87445 44.9643 8.87445 43.687Z" fill="#777777"/>
<path d="M15.6855 43.6872C15.6855 42.4099 16.721 41.3745 17.9983 41.3745H28.6338C29.9111 41.3745 30.9465 42.4099 30.9465 43.6872C30.9465 44.9646 29.9111 46 28.6338 46H17.9983C16.721 46 15.6855 44.9646 15.6855 43.6872Z" fill="#777777"/>
<path d="M33.8195 2.31298C33.8195 1.03568 34.855 0.000213623 36.1323 0.000213623H43.6871C44.9644 0.000213623 45.9998 1.03568 45.9998 2.31298C45.9998 3.59029 44.9644 4.62575 43.6871 4.62575H36.1323C34.855 4.62575 33.8195 3.59029 33.8195 2.31298Z" fill="#777777"/>
<path d="M0 2.31295C0 1.03564 1.03546 0.000183105 2.31277 0.000183105H2.37697C3.65427 0.000183105 4.68973 1.03564 4.68973 2.31295C4.68973 3.59025 3.65427 4.62572 2.37697 4.62572H2.31277C1.03546 4.62572 0 3.59025 0 2.31295Z" fill="#777777"/>
<path d="M8.42487 2.31277C8.42487 1.03546 9.46033 0 10.7376 0H27.8981C29.1755 0 30.2109 1.03546 30.2109 2.31277C30.2109 3.59007 29.1755 4.62554 27.8981 4.62554H10.7376C9.46032 4.62554 8.42487 3.59007 8.42487 2.31277Z" fill="#777777"/>
<path d="M24.2673 10.5689C24.2673 9.29157 25.3027 8.2561 26.58 8.2561L43.6873 8.2561C44.9646 8.2561 46 9.29157 46 10.5689C46 11.8462 44.9646 12.8816 43.6873 12.8816H26.58C25.3027 12.8816 24.2673 11.8462 24.2673 10.5689Z" fill="#777777"/>
<path d="M0 10.5689C0 9.29156 1.03546 8.2561 2.31277 8.2561H2.37697C3.65427 8.2561 4.68973 9.29156 4.68973 10.5689C4.68973 11.8462 3.65427 12.8816 2.37697 12.8816H2.31277C1.03546 12.8816 0 11.8462 0 10.5689Z" fill="#777777"/>
<path d="M8.42487 10.5687C8.42487 9.29138 9.46033 8.25592 10.7376 8.25592L18.2925 8.25592C19.5698 8.25592 20.6052 9.29138 20.6052 10.5687C20.6052 11.846 19.5698 12.8815 18.2925 12.8815H10.7376C9.46033 12.8815 8.42487 11.846 8.42487 10.5687Z" fill="#777777"/>
</svg>
